<?xml version="1.0" encoding="UTF-8" ?>
<!DOCTYPE svg PUBLIC "-//W3C//DTD SVG 1.1//EN" "http://www.w3.org/Graphics/SVG/1.1/DTD/svg11.dtd">
<svg width="238pt" height="238pt" viewBox="0 0 238 238" version="1.1" xmlns="http://www.w3.org/2000/svg">
<path fill="#ffffff" d=" M 0.00 0.00 L 238.00 0.00 L 238.00 238.00 L 0.00 238.00 L 0.00 0.00 Z" />
<path fill="#003366" d=" M 112.33 12.43 C 137.11 11.12 162.38 17.34 183.36 30.68 C 201.28 41.98 215.91 58.75 223.68 78.54 C 229.67 93.89 231.19 110.93 228.04 127.11 C 224.67 144.52 215.94 160.81 203.57 173.49 C 200.17 177.46 195.85 180.48 192.18 184.17 C 190.39 185.75 191.11 188.30 191.88 190.21 C 195.15 199.04 201.67 206.44 209.67 211.30 C 213.97 213.41 214.10 219.74 210.65 222.68 C 207.44 225.55 202.83 224.71 198.91 224.58 C 182.41 223.33 166.33 218.06 151.83 210.20 C 148.49 208.50 145.20 205.38 141.17 206.55 C 106.97 212.84 69.83 204.28 42.98 181.86 C 27.00 168.61 14.86 150.35 10.23 130.00 C 5.43 109.19 8.50 86.60 18.98 67.96 C 28.99 49.37 45.31 34.58 64.07 25.12 C 79.04 17.62 95.60 13.30 112.33 12.43 Z" />
<path fill="#ffffff" d=" M 111.25 32.33 C 128.78 31.24 146.65 34.19 162.64 41.55 C 180.29 49.60 195.78 63.17 204.34 80.76 C 212.13 96.47 213.52 115.25 207.80 131.86 C 202.46 147.97 191.20 161.73 177.22 171.20 C 174.34 173.30 170.30 175.81 170.97 179.97 C 172.32 188.40 176.86 195.78 180.87 203.14 C 179.84 205.40 176.92 203.77 175.10 203.55 C 165.28 200.01 156.56 194.04 148.24 187.85 C 146.21 186.16 143.48 186.15 141.04 186.73 C 117.44 191.57 92.10 188.60 70.69 177.37 C 51.97 167.94 36.31 151.51 29.75 131.40 C 26.04 120.29 25.00 108.16 27.88 96.73 C 31.90 76.91 45.16 59.86 61.86 48.88 C 76.51 39.14 93.77 33.69 111.25 32.33 Z" />
<path fill="#003366" d=" M 58.55 132.98 C 59.11 130.52 61.11 127.78 64.01 128.72 C 68.27 130.65 71.58 134.13 75.65 136.41 C 92.62 146.67 113.40 151.12 133.00 147.44 C 144.75 145.28 156.25 141.02 166.00 134.01 C 169.23 132.07 171.86 127.96 176.05 128.53 C 179.52 129.61 179.52 134.07 177.61 136.56 C 170.50 148.25 158.28 155.95 145.75 160.76 C 120.41 169.97 89.91 165.57 69.42 147.60 C 64.91 143.52 60.51 138.88 58.55 132.98 Z" />
</svg>
